<svg version="1.2" baseProfile="tiny" id="Layer_1" 
	xmlns="http://www.w3.org/2000/svg" 
	xmlns:xlink="http://www.w3.org/1999/xlink" x="0px" y="0px" viewBox="0 0 905.1 297.5" xml:space="preserve">
	<g>
		<g>
			<path fill="#314B9D" d="M53,248.7v3.7H7v-3.7l19.9-7.5L95.2,76h7.5l70.8,169l12.4,3.7v3.7h-29.8c-9.3,0-16.6-2.1-21.9-6.3
			c-5.3-4.2-9.1-9.2-11.4-14.8l-12.7-29.8H50.7l-16.4,39.8L53,248.7z M53.2,195.3h54.4l-27.3-65.4L53.2,195.3z"/>
			<path fill="#314B9D" d="M271.7,78.5c14.9,0,22.4,7.5,22.4,22.4V245l14.9,3.7v3.7h-22.4c-6,0-10.8-1-14.4-2.9
			c-3.6-1.9-6.5-4-8.7-6.3c-2.5-2.8-4.3-6-5.5-9.4c-2.2,4.3-4.9,8-8.2,11.2c-2.8,2.8-6.5,5.4-11.2,7.7c-4.6,2.3-10.2,3.5-16.7,3.5
			c-7.1,0-13.8-1.4-20-4.2c-6.2-2.8-11.6-7-16.2-12.4c-4.6-5.5-8.2-12.3-10.8-20.5c-2.7-8.2-4-17.8-4-28.7c0-10.9,1.3-20.5,4-28.7
			c2.6-8.2,6.4-15,11.2-20.5c4.8-5.5,10.6-9.6,17.3-12.4c6.7-2.8,14.1-4.2,22.2-4.2c4.3,0,8.2,0.5,11.8,1.5c3.6,1,6.6,2.2,9.1,3.5
			c3,1.5,5.5,3.1,7.7,5V85.9l-14.9-3.7v-3.7H271.7z M254.3,141.8c-1.8-1.8-3.7-3.5-5.7-5c-1.8-1.3-3.8-2.5-6-3.5
			c-2.2-1-4.5-1.5-7-1.5c-3.1,0-6.1,0.8-8.8,2.4c-2.7,1.6-5.1,4.5-7.1,8.7c-2,4.2-3.6,10.2-4.7,17.8c-1.2,7.6-1.7,17.5-1.7,29.6
			c0,11.8,0.6,21.4,1.7,28.8c1.2,7.5,2.6,13.3,4.4,17.5c1.7,4.2,3.7,7.1,6,8.6c2.2,1.5,4.4,2.2,6.6,2.2c3.8,0,7.1-1,9.8-3.1
			c2.7-2.1,5-4.4,6.8-6.8c2.2-3,4.1-6.3,5.7-9.9V141.8z"/>
			<path fill="#314B9D" d="M372.4,256.2c-21.2,0-37.7-5.8-49.5-17.5c-11.8-11.7-17.6-27.8-17.6-48.3c0-10.3,1.5-19.5,4.5-27.6
			c3-8.1,7.1-15,12.4-20.8c5.3-5.7,11.7-10.1,19.3-13c7.5-3,15.8-4.5,24.7-4.5c9.3,0,17.6,1.3,25,4c7.4,2.7,13.6,6.2,18.8,10.7
			c5.1,4.5,9.1,9.7,11.8,15.8c2.7,6.1,4.1,12.5,4.1,19.3c0,2.3-0.1,4.3-0.4,6.1c-0.2,1.7-0.5,3.3-0.9,4.6c-0.5,1.7-0.9,3.1-1.2,4.2
			c-7.3,1.5-15,2.7-23.1,3.7c-7,1-15,1.9-24.1,2.6c-9.1,0.7-18.6,1.1-28.6,1.1c0,10.3,0.7,18.9,2.2,25.7c1.5,6.9,3.6,12.3,6.2,16.4
			c2.6,4.1,5.8,7,9.4,8.7c3.6,1.7,7.6,2.6,11.9,2.6c5,0,9.7-0.9,14-2.7c4.4-1.8,8.2-4.3,11.4-7.3c3.2-3.1,5.8-6.5,7.7-10.4
			c1.9-3.9,2.9-7.8,2.9-11.8h6.2c0,5-1.1,9.8-3.4,14.4c-2.2,4.6-5.4,8.7-9.6,12.3c-4.1,3.6-9.1,6.4-14.9,8.6
			C386,255.1,379.5,256.2,372.4,256.2z M347.5,190.3c5.6,0,10.6-0.1,14.9-0.4c4.3-0.2,8-0.5,10.9-0.9c3.5-0.3,6.5-0.7,8.9-1.2
			c0.3-1.7,0.7-3.5,1.2-5.5c0.3-1.8,0.6-3.9,0.9-6.1c0.2-2.2,0.4-4.6,0.4-7.1c0-7.5-0.6-13.7-1.7-18.8c-1.2-5.1-2.6-9.2-4.4-12.3
			c-1.7-3.1-3.7-5.4-6-6.7c-2.2-1.3-4.4-2-6.6-2c-2.2,0-4.4,0.8-6.6,2.4c-2.2,1.6-4.2,4.6-6,8.9c-1.7,4.4-3.2,10.6-4.4,18.5
			C348.1,167.2,347.5,177.5,347.5,190.3z"/>
			<path fill="#314B9D" d="M520.3,165.4c0-5.6-0.6-10.5-1.7-14.5c-1.2-4.1-2.6-7.4-4.3-10.1c-1.7-2.6-3.7-4.6-6-5.8
			c-2.2-1.2-4.4-1.9-6.6-1.9c-3.8,0-7.1,1-9.9,3.1c-2.8,2.1-5.1,4.3-7,6.8c-2.2,3-4,6.3-5.5,9.9v92l14.9,3.7v3.7h-69.6v-3.7
			l14.9-3.7V135.6l-14.9-3.7v-3.7h22.4c5.8,0,10.6,1,14.3,3c3.7,2,6.7,4.1,8.8,6.5c2.5,2.8,4.3,5.9,5.5,9.2
			c2.2-4.1,4.9-7.9,8.2-11.2c2.8-2.8,6.5-5.4,11.1-7.7c4.6-2.3,10.1-3.5,16.8-3.5c7.1,0,13.7,1.2,19.6,3.5c6,2.3,11.1,5.4,15.3,9.2
			c4.2,3.8,7.5,8.2,9.9,13c2.4,4.9,3.6,10,3.6,15.3V245l14.9,3.7v3.7h-32.3c-14.9,0-22.4-7.5-22.4-22.4V165.4z"/>
			<path fill="#314B9D" d="M602.3,128.2c14.9,0,22.4,7.5,22.4,22.4V245l14.9,3.7v3.7H570v-3.7l14.9-3.7V135.6l-14.9-3.7v-3.7H602.3z
			 M583.6,97.1c0-2.8,0.6-5.5,1.7-8.1c1.2-2.6,2.7-4.8,4.6-6.7c1.9-1.9,4.1-3.4,6.7-4.6c2.6-1.2,5.3-1.7,8.1-1.7
			c2.8,0,5.5,0.6,8.1,1.7c2.6,1.2,4.8,2.7,6.7,4.6c1.9,1.9,3.4,4.1,4.6,6.7c1.2,2.6,1.7,5.3,1.7,8.1c0,2.8-0.6,5.5-1.7,8.1
			c-1.2,2.6-2.7,4.8-4.6,6.7c-1.9,1.9-4.1,3.4-6.7,4.6c-2.6,1.2-5.3,1.7-8.1,1.7c-2.8,0-5.5-0.6-8.1-1.7c-2.6-1.2-4.8-2.7-6.7-4.6
			c-1.9-1.9-3.4-4.1-4.6-6.7C584.2,102.6,583.6,99.9,583.6,97.1z"/>
			<path fill="#314B9D" d="M666.9,78.5c14.9,0,22.4,7.5,22.4,22.4v87l46-48.5l-18.6-7.5v-3.7h47.2v3.7l-19.9,7.5l-28.6,29.8
			l48.5,75.8l12.4,3.7v3.7H744c-4.3,0-8.1-0.5-11.4-1.5c-3.3-1-6.3-2.4-8.9-4.3c-2.7-1.9-5-4.1-7.1-6.7c-2.1-2.6-4.1-5.4-6.1-8.6
			l-21.1-33.6V245l14.9,3.7v3.7h-69.6v-3.7l14.9-3.7V85.9l-14.9-3.7v-3.7H666.9z"/>
			<path fill="#314B9D" d="M826,256.2c-21.2,0-37.7-5.8-49.5-17.5c-11.8-11.7-17.6-27.8-17.6-48.3c0-10.3,1.5-19.5,4.5-27.6
			c3-8.1,7.1-15,12.4-20.8c5.3-5.7,11.7-10.1,19.3-13c7.5-3,15.8-4.5,24.7-4.5c9.3,0,17.6,1.3,25,4c7.4,2.7,13.6,6.2,18.8,10.7
			c5.1,4.5,9.1,9.7,11.8,15.8c2.7,6.1,4.1,12.5,4.1,19.3c0,2.3-0.1,4.3-0.4,6.1c-0.2,1.7-0.5,3.3-0.9,4.6c-0.5,1.7-0.9,3.1-1.2,4.2
			c-7.3,1.5-15,2.7-23.1,3.7c-7,1-15,1.9-24.1,2.6c-9.1,0.7-18.6,1.1-28.6,1.1c0,10.3,0.7,18.9,2.2,25.7c1.5,6.9,3.6,12.3,6.2,16.4
			c2.6,4.1,5.8,7,9.4,8.7c3.6,1.7,7.6,2.6,11.9,2.6c5,0,9.7-0.9,14-2.7c4.4-1.8,8.2-4.3,11.4-7.3c3.2-3.1,5.8-6.5,7.7-10.4
			c1.9-3.9,2.9-7.8,2.9-11.8h6.2c0,5-1.1,9.8-3.4,14.4c-2.2,4.6-5.4,8.7-9.6,12.3c-4.1,3.6-9.1,6.4-14.9,8.6
			C839.6,255.1,833.1,256.2,826,256.2z M801.1,190.3c5.6,0,10.6-0.1,14.9-0.4c4.3-0.2,8-0.5,10.9-0.9c3.5-0.3,6.5-0.7,8.9-1.2
			c0.3-1.7,0.7-3.5,1.2-5.5c0.3-1.8,0.6-3.9,0.9-6.1c0.2-2.2,0.4-4.6,0.4-7.1c0-7.5-0.6-13.7-1.7-18.8c-1.2-5.1-2.6-9.2-4.4-12.3
			c-1.7-3.1-3.7-5.4-6-6.7c-2.2-1.3-4.4-2-6.6-2c-2.2,0-4.4,0.8-6.6,2.4c-2.2,1.6-4.2,4.6-6,8.9c-1.7,4.4-3.2,10.6-4.4,18.5
			C801.7,167.2,801.1,177.5,801.1,190.3z"/>
		</g>
		<g>
			<path fill="#314B9D" d="M813.7,273.4c0-6.5,4.4-11.1,10.5-11.1c6.2,0,10.4,4.6,10.4,11.1c0,6.3-4,11.1-10.5,11.1
			C817.9,284.5,813.7,279.7,813.7,273.4z"/>
		</g>
		<g>
			<path fill="#314B9D" d="M366.2,92.8c5.2-7.4,11-14.8,16.1-20.7c2.9-3.4,5.9-8.4,9.9-6.1c1.4,0.8,4.1,3.8,4.9,4.8v0
			c-7.6,9.6-10.3,19.9-16.7,33c-1.2,2.4-4,3.8-7,3.3l0,0C366.2,106,362.3,98.3,366.2,92.8z"/>
		</g>
		<g>
			<path fill="#314B9D" d="M818.5,92.8c5.2-7.4,11-14.8,16.1-20.7c2.9-3.4,5.9-8.4,9.9-6.1c1.4,0.8,4.1,3.8,4.9,4.8l0,0
			c-7.6,9.6-10.3,19.9-16.7,33c-1.2,2.4-4,3.8-7,3.3v0C818.5,106,814.6,98.3,818.5,92.8z"/>
		</g>
		<g>
			<path fill="#314B9D" d="M596.4,62.8L596.4,62.8c-2.9,0.5-5.8-0.9-7-3.3c-6.4-13.1-9.1-23.3-16.7-33v0c0.9-1,3.5-4.1,4.9-4.8
			c4.1-2.3,7,2.8,9.9,6.1c5.1,5.9,10.9,13.3,16.1,20.7C607.6,54,603.7,61.6,596.4,62.8z"/>
		</g>
	</g>
</svg>
