<?xml version="1.0" encoding="utf-8"?>
<!-- Generator: Adobe Illustrator 22.1.0, SVG Export Plug-In . SVG Version: 6.00 Build 0)  -->
<svg version="1.2" baseProfile="tiny" id="Layer_1" xmlns="http://www.w3.org/2000/svg" xmlns:xlink="http://www.w3.org/1999/xlink"
	 x="0px" y="0px" viewBox="0 0 396.2 173.3" xml:space="preserve">
<g>
	<path fill="#FFFFFF" d="M130.3,97c-1.8,1.3-3.6,2.7-5.6,3.9c-1.8,1.1-3.7,2-5.7,2.7c-3.7,1.3-6.5-0.1-8.1-3.8
		c-1.3-3-1.3-6.1-0.8-9.2c0.8-5.7,2.9-11.1,5.3-16.2c0.3-0.7,0.6-1.3,0.6-2.2c-0.3,0.5-0.7,0.9-1,1.4c-6,10.2-12,20.4-17.9,30.6
		c-1.1,2-2.1,2.3-4.1,1c-2.4-1.6-3.1-4.1-3.4-6.8c-0.6-5.7,0.7-11.2,2.5-16.5c1.5-4.3,3.4-8.5,5-12.7c-8.3,11.9-15.4,24.5-20,38.6
		c-2.1-0.1-3.8-1.3-4.3-3.3c-0.7-2.9-1.4-5.9-1.3-8.8c0.6-11.3,4.9-21.6,9.8-31.6c0.9-1.8,1.9-3.4,2.8-5.2c1.7-3.4,4.6-4.7,8.1-4.6
		c2.1,0.1,4.3,0.8,6.8,1.3c-8.6,10.5-15,21.5-18.6,34c1.6-2.8,3.2-5.7,4.9-8.4c5-8.3,10.3-16.4,17.1-23.4c0.6-0.6,1.2-1.1,1.8-1.7
		c4.3-4.8,9.5-4.4,14.9-2.6c0.1,0,0.2,0.1,0.3,0.2c0.1,0.1,0.2,0.2,0.4,0.5c-9.6,11.2-16.4,24.2-21.1,38.2c1.8-2.8,3.6-5.6,5.5-8.3
		c6.2-8.9,12.5-17.8,18.8-26.7c1-1.3,2.1-2.6,3.3-3.7c3.7-3.8,9.8-4.5,14.7-1.7C131.4,65.9,122,80,118,97.6c1.8-0.4,3-0.5,4.1-0.9
		c4.3-1.5,7.8-4.3,11-7.4c0.5-0.5,0.7-1.2,1-1.8c5.2-11.1,10.3-22.2,15.6-33.3c3.2-6.7,10.1-7,15.4-4.9c0.2,0.1,0.4,0.3,0.7,0.5
		c-2.1,2.9-4.3,5.7-6.4,8.5c0.2,0.2,0.4,0.4,0.7,0.6c0.3-0.5,0.4-1.1,0.8-1.4c3.6-3.2,7.3-6.3,10.9-9.5c1.5-1.3,3.4-1.6,5.2-1
		c1.8,0.6,3.7,1.4,5.3,2.5c2,1.3,2.9,3.2,2.7,5.7c-0.7,8.3-3,16.1-7,23.4c-0.3,0.5-0.6,1-0.6,1.8c2.9-2,5.8-3.9,8.7-6
		c0.4-0.3,0.6-1,0.8-1.5c3.3-8.9,7.6-17.2,12.5-25.3c2.1-3.5,5-4.9,8.9-4.2c1.7,0.3,3.4,0.8,5.4,1.2c-10.5,15.1-20.5,30-25.4,47.5
		c0.2,0.2,0.4,0.4,0.5,0.6c1.7-0.9,3.5-1.6,5-2.7c5.7-4,9.8-9.4,13.1-15.5c2.9-5.4,5.5-11,8.3-16.5c1.7-3.3,3.7-6.4,5.3-9.7
		c2-3.9,5.2-5.2,9.3-4.6c1.7,0.3,3.3,0.8,5.1,1.2c-4.8,7.3-9.6,14.2-13.9,21.4c-4.4,7.2-8.5,14.6-10.1,23.6c1.8-0.4,3.3-0.6,4.6-1.1
		c6.9-2.7,12.1-7.7,16.8-13.1c0.2-0.2,0.3-0.5,0.5-0.8c3.6-8.3,7.2-16.6,10.8-24.8c0.1-0.2,0.1-0.5,0.3-0.9c-2.1,0-4,0-6,0
		c-0.9-3.2,0.7-5.7,3.8-6.1c0.2,0,0.4-0.1,0.6,0c4.1,0.6,5.9-1.6,7.6-5c4.8-9.5,10.1-18.7,15-28.1c2.3-4.5,5.8-6,10.5-5.4
		c2.1,0.3,4,0.9,6.5,1.5c-9.6,11.3-17,23.5-24.4,36.5c2.3-0.3,4-0.5,5.9-0.8c1,1.5,1.1,3.2,0.3,4.9c-0.8,1.7-2.3,2.6-4,2.3
		c-4.5-0.7-6.8,1.3-8.6,5.3c-4,9.2-8.5,18.2-12.7,27.3c-0.6,1.4-1,2.9-1.7,4.9c1.9-0.5,3.5-0.5,4.7-1.2c4.2-2.6,8.3-5.3,12.4-8.1
		c0.3-0.2,0.6-0.7,0.8-1c3.7-9.2,10.8-15.1,19.5-19.2c0.3-0.1,0.6-0.3,0.8-0.4c-0.1-0.1-0.1-0.3-0.1-0.3c-4.6-1.4-6.9-6.9-3.8-12.3
		c4.1-7.2,14.8-10.7,22.2-7.2c3.8,1.8,5.5,5.3,4.5,9c-0.7,2.7-2.6,4.1-5.3,4.6c-2.4,0.4-4.5-0.4-6.9-1.9c0.5-0.3,1.2-0.6,1.5-1
		c1.1-1.7,2.2-3.4,3-5.2c0.6-1.6-0.5-2.8-2.2-2.6c-5.2,0.5-9.3,7.9-7,12.6c0.6,1.3,1.6,1.8,3.1,1.7c1.4-0.1,3-0.4,4.3,0
		c1,0.3,2.1,1.3,2.4,2.2c0.5,1.4-0.6,2.4-1.9,2.9c-1,0.4-2.2,0.5-3.3,0.7c-1.5,0.3-3.1,0.2-4.4,0.9c-7.9,4.2-13.5,10.5-16,19.2
		c-1.1,3.8,0.8,6,4.7,6.2c4.3,0.2,8-1.6,11.5-3.6c2.2-1.3,4.3-2.8,6.3-4.3c2.6-1.9,4.6-4.2,6-7.3c3.5-7.9,10-13,17.6-16.8
		c0.6-0.3,1.3-0.6,2-1c-0.4-0.2-0.5-0.4-0.8-0.5c-4.1-1.9-5.9-5.8-4.3-10.1c2.3-6.2,7.3-9.1,13.4-10.3c3-0.6,6-0.4,8.8,0.7
		c4,1.5,6.1,4.8,5.5,8.3c-0.6,3.8-3.1,5.9-6.9,5.6c-1.8-0.1-3.5-0.7-5.3-1.1c1.4-2,2.8-3.5,3.6-5.3c0.5-1.1,0.1-2.6,0.2-3.9
		c-1.3,0-2.7-0.3-3.8,0.1c-4,1.4-6.6,7.5-5.1,11.5c0.7,1.9,1.9,2.4,3.9,2.2c1.4-0.1,3-0.2,4.3,0.2c0.8,0.3,1.8,1.4,1.9,2.3
		c0.1,0.7-0.7,1.9-1.5,2.4c-0.8,0.6-2,0.9-3,0.9c-3.2-0.2-5.9,1-8.3,2.7c-5.1,3.7-9.1,8.3-11.7,14c-0.3,0.7-0.6,1.4-0.8,2.1
		c-1.6,5.3,1.1,8.4,6.6,7.5c5.4-0.9,10-3.6,14.3-6.9c0.4-0.3,0.4-1.5,0.2-2.1c-2.4-8.2,1.9-16.5,9.8-18.9c2.8-0.8,5.5-0.8,8.2,0.3
		c4.5,1.8,6.7,9,1.5,12.7c-1.9,1.4-4,2.4-6.6,2.7c0.4-1.2,0.7-2.1,1.1-3.5c-3,3.2-5.7,6.1-8.3,8.9c1.3,2.7,4.4,4,7.7,3.4
		c7-1.4,12.6-7.8,12.6-15c0-3-0.7-6-1.4-9c-1.3-5.2-3.3-10.2-3.2-15.6c0.2-5.7,5.2-10.7,10.9-10.7c3.1,0,5.4,1.3,6.5,4.1
		c10.6-8.5,21.2-17,32.4-24.8c0.2,0.1,0.3,0.3,0.5,0.4c-0.6,0.7-1.1,1.5-1.8,2.1c-6.1,6.2-12.2,12.3-18.2,18.5
		c-1.2,1.2-2.2,2.5-3.4,3.6c-4.1,3.7-5.6,8.6-5.9,13.8c-0.1,1.6-0.8,1.9-2.2,1.7c-3.9-0.7-5.9-3.8-4.8-7.5c0.3-1,0.8-1.9,1-2.9
		c0.3-1.5-0.2-2.7-1.7-3.2c-1.5-0.5-2.6,0.1-3.3,1.5c-1.1,2.5-0.9,5-0.3,7.5c1.1,4.5,2.7,8.9,3.7,13.4c2.3,9.9-1.1,18.9-8.8,23.8
		c-4.5,2.8-9.5,4-14.8,3c-3-0.6-5.5-2-7.6-4.1c-0.9-1-1.5-0.9-2.5-0.2c-5.2,3.9-10.7,7.1-17.2,8.2c-2.4,0.4-5,0.5-7.4,0.2
		c-4.7-0.6-8-3.1-9-8.3c-0.5,0.4-1,0.7-1.4,1c-5.7,4.7-11.9,8.8-19.3,10.4c-2.5,0.5-5.2,0.7-7.8,0.6c-5.1-0.3-8.2-3.2-9.8-9
		c-0.5,0.4-1,0.8-1.5,1.2c-4.3,3.5-8.8,6.7-14.1,8.6c-4,1.4-7-0.6-7.4-5c-0.1-1.6,0-3.2,0-5c-0.6,0.6-1.3,1.2-1.9,1.8
		c-4.8,4.5-10,8.5-16.3,10.7c-4.3,1.5-5.9,0.6-6.8-4c-0.4-2.2-0.3-4.5-0.4-7c-1.9,2.2-3.7,4.3-5.6,6.3c-3,3.1-6.1,6.1-10.5,7.3
		c-3.2,0.9-5.2-0.3-5.9-3.5c-0.9-4,0.1-8,0.9-11.9c0.1-0.5,0.2-1.1,0.4-1.8c-0.4,0.1-0.7,0.1-0.9,0.2c-4.1,2.6-8.2,5.1-12.2,7.8
		c-2,1.4-3.7,3.3-5.6,4.9c-4.7,3.9-9.9,6.8-15.9,7.9c-5.4,1-7.3,0.4-11.5-3.6c-0.7,2.2-1.3,4.2-1.8,6.3c-0.8,3.1-1.3,6.3-5,7.6
		c-0.4,0.1-0.6,0.9-0.8,1.4c-2.9,9.2-5.8,18.4-8.8,27.6c-0.3,1-0.4,1.8,0.9,2.2c1.6,0.5,1.8,1.8,1.4,3.2c-0.9,3.3-0.4,4.3,2.9,5.3
		c1.5,0.5,3.1,0.9,4.6,1.4c4.4,1.5,6.8,6,5.7,10.5c-0.7,2.7-2,3.5-4.8,2.7c-3.8-1.1-7.6-2.2-11.3-3.3c-3.1-0.9-6.1-1.7-9.2-2.6
		c-2.9-1-3.3-2-2.3-4.9c1.4-4,2.6-8,4-11.9c0.5-1.5,1-2.7,3-2.4c0.5,0.1,1.5-0.9,1.7-1.6c1.5-4.4,2.9-8.8,4.3-13.2
		c1.5-4.8,3.1-9.7,4.6-14.5c0.2-0.6,0.4-1.3,0.2-1.8c-1.6-3.3-0.4-6.2,1.1-9c0.6-1,1.1-2.1,1.6-3.1C130.4,97.1,130.4,97,130.3,97z
		 M142.2,89.9c0.5,0,0.8,0.1,1.1,0.1c7.1-1.1,14.1-2.7,20.7-5.7c0.8-0.4,1.6-1.1,2-1.9c4.1-6.2,6.9-12.9,8-20.2
		c0.4-3.2,0.3-6.4,0.5-9.6c-0.3-0.1-0.6-0.2-0.9-0.3C159.5,61.7,148.7,73.9,142.2,89.9z M328.4,71.4c0.2,0.2,0.5,0.3,0.7,0.5
		c2.8-3.2,5.7-6.4,8.5-9.6c0.2-0.2-0.2-1.1-0.5-1.3c-1.5-1.2-4-1.1-5.6,0.5C328.7,64.2,327.8,67.6,328.4,71.4z M158.6,90.8
		c-5.7,1.3-11.5,2.7-17.3,4.1C145.3,99.2,152.8,96.6,158.6,90.8z"/>
	<path fill="#FFFFFF" d="M151.5,105.5c68.4-6.5,136.7-13,205.7-19.5c-3.4,4.7-6.5,9-9.6,13.3c3.9,3.6,7.6,7.2,11.4,10.7
		c0,0.2-0.1,0.4-0.1,0.6c-68.4,6.5-136.8,13-205.2,19.5c-0.1-0.2-0.2-0.3-0.3-0.5c3-4.2,6.1-8.4,9.2-12.8
		c-3.8-3.6-7.6-7.2-11.5-10.8C151.3,105.9,151.4,105.7,151.5,105.5z M212.5,110.8c0.2,0,0.4-0.1,0.6-0.1c1.8,1.6,2.2,4.4,4.9,5.7
		c0-3.2,0-6.1,0-9.2c-0.7,0.1-1.7,0.3-2.4,0.4c0.4,1.8,0.8,3.4,1.1,5c-0.2,0.1-0.4,0.2-0.6,0.2c-0.9-1.3-1.8-2.5-2.6-3.9
		c-0.9-1.5-2-1.4-3.1-0.8c1.1,2.8,1.7,5.5,0.6,8.6c1.1-0.1,2-0.3,2.5-0.3C213.1,114.3,212.8,112.5,212.5,110.8z M321.4,106.2
		c2.1-0.4,4.1-0.6,5.9-1.2c1.5-0.5,2-2,2-3.5c0-1.7-0.4-3.2-2-4c-2.2-1.1-4.5-0.4-6.6,0C322,100.2,322.5,102.9,321.4,106.2z
		 M180.7,110.9c0.4,1.1,0.8,2,0.9,2.8c0.2,1.1,0.2,2.2,0.4,3.2c0.3,1.5,1.1,2.5,2.8,2.6c2.4,0,3.6-1.2,3.4-3.7c-0.1-1.8,0-3.6,0-5.7
		c-0.8,0.1-1.8,0.3-3.1,0.5c2.2,1.8,1.4,4,1.7,6c0.1,0.4-0.9,1.4-1.4,1.4c-0.6,0-1.7-0.6-1.8-1.1c-0.3-2-0.3-4-0.5-6.2
		C182.6,110.8,181.6,110.9,180.7,110.9z M292.9,109.1c2.4-0.2,4.5-0.5,6.8-0.7c-0.2-1-0.3-1.6-0.5-2.3c-1,1.7-2.3,1.9-4,1.5
		c0-1,0-1.9,0-2.6c0.8-0.3,1.4-0.6,2.1-0.9c0-0.2,0-0.3,0-0.5c-1.6,0-3.2,0-2.2-2.8c1.2,0.2,2.4,0.5,4.1,0.9c-0.3-0.7-0.7-1.8-1-1.8
		c-1.9,0-3.9,0.2-6.2,0.4C293.7,102.2,294.2,106.9,292.9,109.1z M264.6,105.3c1.6-1.6,2.3-1.8,2.3-0.9c0.1,2.2,1.3,4.5-0.4,7.1
		c1.3-0.1,2.3-0.2,3.6-0.3c-2-2-1.4-4.2-1.7-6.2c-0.1-0.4,0.2-0.9,0.3-1.4c0.4,0.3,0.8,0.6,1.2,0.8c0.2,0.1,0.6,0.1,0.9,0.1
		c0.3-1.6-0.2-2.3-1.8-2.1c-1.5,0.2-3.1,0.3-4.8,0.5C264.4,103.8,264.5,104.4,264.6,105.3z M242.6,105c-1,0.1-1.9,0.2-3,0.3
		c1.6,1.9,2,6.4,0.8,8.7c1.2-0.1,2.2-0.2,3-0.3C242.2,110.8,242,108.2,242.6,105z"/>
	<path fill="#FFFFFF" d="M25.2,78.9c-4.8-2.3-7.9-8.1-6.9-12.8c0.6-2.7,2.3-4.6,4.3-6.4c4.8-4.1,10.2-7.1,15.9-9.7
		c9.9-4.6,20.3-7.9,31.1-9.3c3.2-0.4,6.5-0.2,9.7,0.3c1.8,0.3,3.6,1.4,5,2.5c2.4,2,2.4,3.2,0.7,5.8c-8.5,13.2-15.6,27.1-20.9,41.9
		c-0.2,0.6-0.4,1.3-0.7,2.3c2.8-0.1,5.9-1.5,6.8,2.8c-2.2,0.5-4.3,1.2-6.5,1.6c-1.4,0.3-2,1-2.4,2.3c-1.4,5.8-0.7,11.5,1.3,17
		c2.9,8,7.9,14.7,13.2,21.3c2.4,2.9,2.5,4.3,0.3,7.5c-4,6.1-12.7,7.2-18.7,2.4c-4.9-4-7.1-9.5-8.3-15.5c-2.1-10.1-1.2-20.1,1.8-29.9
		c0.2-0.7,0.4-1.4,0.7-2.5c-2.2,0.3-4.2,0.6-6.1,1c-7.4,1.4-14.9,2-22.4,1.4c-3.9-0.3-7.8-1.4-11.4-2.7c-4.4-1.6-6-5.4-4.6-9.9
		c0.6-1.9,1.7-3.6,2.6-5.7c1.3,1.2,2.2,2.1,3.2,3c4.8,4,10.8,5.3,16.6,6.7c0.4,0.1,1.3-0.6,1.6-1.1c2.8-4.9,5.5-9.9,8.3-14.8
		c6.3-10.9,13.9-20.7,23.5-28.9c0.9-0.8,2-1.5,2.8-2.5C49.6,53.9,34.6,62.6,25.2,78.9z M34.3,94.3c0.1,0.2,0.2,0.4,0.3,0.6
		c6.1-0.2,12.2-0.4,18.3-0.7c0.5,0,1.2-0.7,1.4-1.2c4.1-10.4,9.4-20.1,14.9-29.8c2.7-4.7,5.1-9.5,7.9-14.8c-1.2,0.4-1.8,0.6-2.4,0.8
		c-4.6,1.8-8.6,4.7-12.2,8c-10,9-17.8,19.7-24.7,31.1C36.4,90.3,35.4,92.3,34.3,94.3z"/>
	<path fill="#FFFFFF" d="M157.5,134.5c11.8-1.2,23.5-2.4,35.3-3.6c12.2-1.2,24.4-2.5,36.6-3.7c11.4-1.1,22.8-2.1,34.2-3.2
		c11.9-1.1,23.8-2.2,35.7-3.3c9.8-0.9,19.6-1.7,29.5-2.5c10.1-0.8,20.2-1.6,30.2-2.3c1.5-0.1,3,0,3.8,1.5c0.7,1.4,0.8,2.9-0.3,3.9
		c-0.9,0.8-2.1,1.5-3.3,1.6c-9,0.6-18,1.1-27,1.6c-11.8,0.7-23.6,1.4-35.4,2.1c-7.3,0.4-14.6,0.9-21.9,1.3
		c-12.3,0.7-24.5,1.5-36.8,2.2c-7.3,0.4-14.6,0.8-21.9,1.3c-12,0.7-24,1.4-36,2.2c-6.9,0.4-13.8,0.8-20.8,1.2c-0.6,0-1.3,0-1.9,0
		C157.5,134.8,157.5,134.6,157.5,134.5z"/>
	<path fill="#FFFFFF" d="M106.7,30.2c0,6.1-4.9,10.9-11.1,10.9c-6.1,0-10.9-4.9-10.9-11.1c0-6.1,4.9-10.9,11.1-10.9
		C102,19.1,106.8,24,106.7,30.2z"/>
	<path fill="#FFFFFF" d="M17.3,149.5c-1.7,0-3.3,0-5,0c-1.5,0-2.4-0.9-2.4-2.4c0-1.5,0.9-2.4,2.3-2.5c3.4-0.1,6.7-0.1,10.1,0
		c1.5,0,2.5,0.9,2.5,2.4c0,1.6-0.9,2.4-2.6,2.5C20.6,149.5,19,149.5,17.3,149.5C17.3,149.5,17.3,149.5,17.3,149.5z"/>
	<path fill="#FFFFFF" d="M323.6,104.5c2.9,0.2,4.2-0.8,4.3-3c0.1-2.4-1.1-3.8-3.3-3.8c-1,0-1.7,0.3-1.6,1.6
		C323.3,101,323.4,102.7,323.6,104.5z"/>
</g>
</svg>
